<svg width="222" height="103" viewBox="0 0 222 103" fill="none" xmlns="http://www.w3.org/2000/svg">
<path fill-rule="evenodd" clip-rule="evenodd" d="M130.733 29.2036C130.558 29.2626 130.367 29.3276 130.158 29.3998L116.186 34.2054L86.0605 34.2059C71.5935 34.2059 57.5 33.8292 50 34.8519C39 36.3519 39.0537 37.5928 35 40.8519C30.9463 44.1111 28.5 50.9793 28.5 57.3829V63.0268C28.5 69.4303 29.9463 76.2409 34 79.5C38.0537 82.7591 40.9203 83.257 48.5 85C56.0797 86.743 71.168 86.2038 86.0605 86.2038H157.939C172.832 86.2038 189.42 86.9466 197 85.2036C204.58 83.4606 207.446 83.4628 211.5 80.2036C215.554 76.9445 217 73.6072 217 67.2036V59.2036C217 52.8001 216.751 45.9628 212.698 42.7036C208.644 39.4445 208.58 37.9466 201 36.2036C193.42 34.4606 172.832 34.2059 157.939 34.2059L158.044 34.2054L171.569 29.5556C180.664 30.035 189.553 30.3515 196 30.7036C205.553 30.7036 211.136 34.2927 216 38.2036C220.864 42.1146 222 49.7914 222 57.3829V63.0268C222 70.6183 220.864 78.7927 216 82.7036C211.136 86.6146 210.096 87.612 201 89.7036C191.904 91.7952 174.125 91.2036 156.47 91.2036H87.53C69.8747 91.2036 54.5956 91.7952 45.5 89.7036C36.4044 87.612 34.3193 87.4436 29.4549 83.5326C24.5905 79.6216 22 70.6183 22 63.0268V57.3829C22 49.7914 24.5906 40.7883 29.4549 36.8773C34.3193 32.9663 34.4043 32.7951 43.4999 30.7035C52.5955 28.6119 69.8747 29.206 87.53 29.206L130.733 29.2036Z" fill="#CE3D4F"/>
<path opacity="0.1" fill-rule="evenodd" clip-rule="evenodd" d="M76.6148 32H167.159C184.759 32 199.354 32.8548 205.788 34.1923C212.222 35.5298 212.154 35.528 215.595 38.0288C219.036 40.5297 217.774 44.8322 217.774 51.6729V69.3271C217.774 76.1678 215.942 78.6484 212.501 81.1493C209.059 83.6501 204.01 85.6128 197.576 86.9503C191.141 88.2877 184.759 89 167.159 89H76.6148C59.0149 89 52.6328 88.2877 46.1985 86.9503C39.7643 85.6128 34.7147 83.6501 31.2736 81.1493C27.8325 78.6484 26 76.1678 26 69.3271V51.6729C26 44.8322 27.8325 42.3516 31.2736 39.8507C34.7147 37.3499 39.7643 35.3872 46.1985 34.0497C52.6328 32.7123 59.0149 32 76.6148 32Z" fill="#CE3D4F"/>
<path fill-rule="evenodd" clip-rule="evenodd" d="M82.0294 102.744V91H69L82.0294 102.744Z" fill="#919191"/>
<path d="M33 8C35.2091 8 37 6.20914 37 4C37 1.79086 35.2091 0 33 0C30.7909 0 29 1.79086 29 4C29 6.20914 30.7909 8 33 8Z" fill="#CE3D4F"/>
<path d="M52 21C53.1046 21 54 20.1046 54 19C54 17.8954 53.1046 17 52 17C50.8954 17 50 17.8954 50 19C50 20.1046 50.8954 21 52 21Z" fill="#CE3D4F"/>
<path d="M7.5 32C11.6421 32 15 28.6421 15 24.5C15 20.3579 11.6421 17 7.5 17C3.35786 17 0 20.3579 0 24.5C0 28.6421 3.35786 32 7.5 32Z" fill="#919191"/>
</svg>
