<svg width="228" height="103" viewBox="0 0 228 103" fill="none" xmlns="http://www.w3.org/2000/svg">
<path fill-rule="evenodd" clip-rule="evenodd" d="M93.7336 29.2036C93.9132 29.2626 94.1092 29.3276 94.3248 29.3998L108.674 34.2054L139.614 34.2059C154.472 34.2059 168.946 33.8292 176.649 34.8519C187.946 36.3519 187.891 37.5928 192.054 40.8519C196.217 44.1111 198.73 50.9793 198.73 57.3829V63.0268C198.73 69.4303 197.244 76.2409 193.081 79.5C188.918 82.7591 185.974 83.257 178.189 85C170.405 86.743 154.909 86.2038 139.614 86.2038H65.792C50.497 86.2038 33.4603 86.9466 25.6758 85.2036C17.8913 83.4606 14.9471 83.4628 10.7839 80.2036C6.62069 76.9445 5.13525 73.6072 5.13525 67.2036V59.2036C5.13525 52.8001 5.39066 45.9628 9.55387 42.7036C13.7171 39.4445 13.7832 37.9466 21.5677 36.2036C29.3522 34.4606 50.497 34.2059 65.792 34.2059L65.6845 34.2054L51.7937 29.5556C42.4531 30.035 33.3239 30.3515 26.7028 30.7036C16.8915 30.7036 11.1581 34.2927 6.16228 38.2036C1.16642 42.1146 0.000115395 49.7914 0.000115395 57.3829V63.0268C0.000115395 70.6183 1.16642 78.7927 6.16228 82.7036C11.1581 86.6146 12.2262 87.612 21.5677 89.7036C30.9091 91.7952 49.1688 91.2036 67.3013 91.2036H138.104C156.237 91.2036 171.929 91.7952 181.27 89.7036C190.612 87.612 192.753 87.4436 197.749 83.5326C202.745 79.6216 205.406 70.6183 205.406 63.0268V57.3829C205.406 49.7914 202.745 40.7883 197.749 36.8773C192.753 32.9663 192.666 32.7951 183.325 30.7035C173.983 28.6119 156.237 29.206 138.104 29.206L93.7336 29.2036Z" fill="#8E6BCE"/>
<path opacity="0.1" fill-rule="evenodd" clip-rule="evenodd" d="M149.315 32H56.3229C38.2474 32 23.2581 32.8548 16.65 34.1923C10.0418 35.5298 10.1124 35.528 6.5783 38.0288C3.04422 40.5297 4.34015 44.8322 4.34015 51.6729V69.3271C4.34015 76.1678 6.22217 78.6484 9.75625 81.1493C13.2903 83.6501 18.4765 85.6128 25.0846 86.9503C31.6928 88.2877 38.2474 89 56.3229 89H149.315C167.39 89 173.945 88.2877 180.553 86.9503C187.161 85.6128 192.347 83.6501 195.881 81.1493C199.415 78.6484 201.297 76.1678 201.297 69.3271V51.6729C201.297 44.8322 199.415 42.3516 195.881 39.8507C192.347 37.3499 187.161 35.3872 180.553 34.0497C173.945 32.7123 167.39 32 149.315 32Z" fill="#8E6BCE"/>
<path fill-rule="evenodd" clip-rule="evenodd" d="M143.754 102.744V91H157.135L143.754 102.744Z" fill="#919191"/>
<path d="M194.108 8C191.839 8 190 6.20914 190 4C190 1.79086 191.839 0 194.108 0C196.377 0 198.216 1.79086 198.216 4C198.216 6.20914 196.377 8 194.108 8Z" fill="#8E6BCE"/>
<path d="M174.595 21C173.46 21 172.541 20.1046 172.541 19C172.541 17.8954 173.46 17 174.595 17C175.729 17 176.649 17.8954 176.649 19C176.649 20.1046 175.729 21 174.595 21Z" fill="#8E6BCE"/>
<path d="M220.297 32C216.043 32 212.595 28.6421 212.595 24.5C212.595 20.3579 216.043 17 220.297 17C224.551 17 228 20.3579 228 24.5C228 28.6421 224.551 32 220.297 32Z" fill="#919191"/>
</svg>
