<svg width="206" height="99" viewBox="0 0 206 99" fill="none" xmlns="http://www.w3.org/2000/svg">
<path opacity="0.1" fill-rule="evenodd" clip-rule="evenodd" d="M51.0755 0L116.067 0C129.53 0 137.615 1.02108 144.748 2.93846C151.882 4.85584 157.481 7.66951 161.296 11.2547C165.111 14.8399 167.143 18.9028 167.143 25.6687V30.3313C167.143 37.0972 165.111 41.1601 161.296 44.7453C157.481 48.3305 151.882 51.1442 144.748 53.0615C137.615 54.9789 129.53 56 116.067 56H51.0755C37.6128 56 29.5283 54.9789 22.3946 53.0615C15.2608 51.1442 9.66213 48.3305 5.84693 44.7453C2.03174 41.1601 0 37.0972 0 30.3313L0 25.6687C0 18.9028 2.03174 14.8399 5.84693 11.2547C9.66213 7.66951 15.2608 4.85584 22.3946 2.93846C29.5283 1.02108 37.6128 0 51.0755 0Z" fill="#DE4368"/>
<path fill-rule="evenodd" clip-rule="evenodd" d="M147.378 25.293C163.116 25.293 180.685 25.2012 188.793 27.2929C196.901 29.3846 198.648 31.5707 201.793 36.2929C204.938 41.015 205.793 45.8791 205.793 53.4709V59.1151C205.793 66.7069 205.129 74.8818 200.793 78.7929C196.457 82.704 191.293 85.2929 181.793 86.2929C173.293 87.1876 163.116 87.293 147.378 87.293H85.9227C70.1842 87.293 60.4011 88.5916 52.293 86.4999C44.185 84.4082 39.6292 83.204 35.293 79.2929C30.9567 75.3818 27.5073 67.2929 27.5073 59.1151V53.4709C27.5073 45.8791 28.2929 40.7929 31.793 35.2929C37 29.7929 41.4999 28.0833 51 26.5C58.9999 25.1667 70.1842 25.293 85.9227 25.293H147.378Z" fill="url(#paint0_linear_451_108)"/>
<path fill-rule="evenodd" clip-rule="evenodd" d="M97.4803 98.7442V87H79.238L97.4803 98.7442Z" fill="url(#paint1_linear_451_108)"/>
<defs>
<linearGradient id="paint0_linear_451_108" x1="29.7142" y1="56" x2="208" y2="56" gradientUnits="userSpaceOnUse">
<stop stop-color="#FECAB2"/>
<stop offset="1" stop-color="#CE3D4F"/>
</linearGradient>
<linearGradient id="paint1_linear_451_108" x1="79.238" y1="92.8721" x2="97.4803" y2="92.8721" gradientUnits="userSpaceOnUse">
<stop stop-color="#FECAB2"/>
<stop offset="1" stop-color="#CE3D4F"/>
</linearGradient>
</defs>
</svg>
