<svg width="205" height="99" viewBox="0 0 205 99" fill="none" xmlns="http://www.w3.org/2000/svg">
<path opacity="0.1" fill-rule="evenodd" clip-rule="evenodd" d="M154.121 0L89.3798 0C75.969 0 67.9157 1.02108 60.8094 2.93846C53.7031 4.85584 48.126 7.66951 44.3255 11.2547C40.525 14.8399 38.5011 18.9028 38.5011 25.6687V30.3313C38.5011 37.0972 40.525 41.1601 44.3255 44.7453C48.126 48.3305 53.7031 51.1442 60.8094 53.0615C67.9157 54.9789 75.969 56 89.3798 56H154.121C167.532 56 175.585 54.9789 182.692 53.0615C189.798 51.1442 195.375 48.3305 199.176 44.7453C202.976 41.1601 205 37.0972 205 30.3313V25.6687C205 18.9028 202.976 14.8399 199.176 11.2547C195.375 7.66951 189.798 4.85584 182.692 2.93846C175.585 1.02108 167.532 0 154.121 0Z" fill="#DE4368"/>
<path fill-rule="evenodd" clip-rule="evenodd" d="M58.1906 25.293C42.5128 25.293 25.0116 25.2012 16.9347 27.2929C8.85789 29.3846 7.11828 31.5707 3.98494 36.2929C0.851597 41.015 0.000275501 45.8791 0.000275501 53.4709V59.1151C0.000275501 66.7069 0.661543 74.8818 4.98109 78.7929C9.30064 82.704 14.4445 85.2929 23.9079 86.2929C32.3751 87.1876 42.5128 87.293 58.1906 87.293H119.409C135.087 87.293 144.832 88.5916 152.909 86.4999C160.986 84.4082 165.524 83.204 169.843 79.2929C174.163 75.3818 177.599 67.2929 177.599 59.1151V53.4709C177.599 45.8791 176.817 40.7929 173.33 35.2929C168.143 29.7929 163.66 28.0833 154.197 26.5C146.228 25.1667 135.087 25.293 119.409 25.293H58.1906Z" fill="url(#paint0_linear_471_116)"/>
<path fill-rule="evenodd" clip-rule="evenodd" d="M107.895 98.7442V87H126.067L107.895 98.7442Z" fill="url(#paint1_linear_471_116)"/>
<defs>
<linearGradient id="paint0_linear_471_116" x1="175.401" y1="56" x2="-2.19813" y2="56" gradientUnits="userSpaceOnUse">
<stop stop-color="#FECAB2"/>
<stop offset="1" stop-color="#CE3D4F"/>
</linearGradient>
<linearGradient id="paint1_linear_471_116" x1="126.067" y1="92.8721" x2="107.895" y2="92.8721" gradientUnits="userSpaceOnUse">
<stop stop-color="#FECAB2"/>
<stop offset="1" stop-color="#CE3D4F"/>
</linearGradient>
</defs>
</svg>
