<svg width="153" height="99" viewBox="0 0 153 99" fill="none" xmlns="http://www.w3.org/2000/svg">
<path opacity="0.1" fill-rule="evenodd" clip-rule="evenodd" d="M36.7039 0L83.4083 0C93.0829 0 98.8925 1.02108 104.019 2.93846C109.145 4.85584 113.169 7.66951 115.91 11.2547C118.652 14.8399 120.112 18.9028 120.112 25.6687V30.3313C120.112 37.0972 118.652 41.1601 115.91 44.7453C113.169 48.3305 109.145 51.1442 104.019 53.0615C98.8925 54.9789 93.0829 56 83.4083 56H36.7039C27.0293 56 21.2196 54.9789 16.0932 53.0615C10.9667 51.1442 6.94339 48.3305 4.20172 44.7453C1.46005 41.1601 0 37.0972 0 30.3313L0 25.6687C0 18.9028 1.46005 14.8399 4.20172 11.2547C6.94339 7.66951 10.9667 4.85584 16.0932 2.93846C21.2196 1.02108 27.0293 0 36.7039 0Z" fill="#DE4368"/>
<path fill-rule="evenodd" clip-rule="evenodd" d="M112.708 25.0001C123.564 25.0001 133.408 24.9083 139 27C144.593 29.0917 146.5 32 149 36.0001C151.5 40.0002 153 45.5862 153 53.178V58.8222C153 66.414 152.991 72.0889 150 76C147.009 79.9111 144.093 82.9083 138.5 85C132.908 87.0917 123.564 87.0001 112.708 87.0001H70.3199C59.4644 87.0001 48.0926 87.0917 42.5001 85C37.5 82.5 36.5002 83 33.0001 77.5C29.5 72 30.0281 66.414 30.0281 58.8222V53.178C30.0281 45.5862 30.0091 37.9111 33.0001 34C35.991 30.0889 36.9075 29.0917 42.5001 27C49 25.0001 59.4644 25.0001 70.3199 25.0001H112.708Z" fill="url(#paint0_linear_451_118)"/>
<path fill-rule="evenodd" clip-rule="evenodd" d="M81.5467 98.7442V87H62.9159L81.5467 98.7442Z" fill="url(#paint1_linear_451_118)"/>
<defs>
<linearGradient id="paint0_linear_451_118" x1="30.0281" y1="56" x2="153" y2="56" gradientUnits="userSpaceOnUse">
<stop stop-color="#FECAB2"/>
<stop offset="1" stop-color="#CE3D4F"/>
</linearGradient>
<linearGradient id="paint1_linear_451_118" x1="62.9159" y1="92.8721" x2="81.5467" y2="92.8721" gradientUnits="userSpaceOnUse">
<stop stop-color="#FECAB2"/>
<stop offset="1" stop-color="#CE3D4F"/>
</linearGradient>
</defs>
</svg>
