<svg width="224" height="103" viewBox="0 0 224 103" fill="none" xmlns="http://www.w3.org/2000/svg">
<path fill-rule="evenodd" clip-rule="evenodd" d="M92.089 29.2036C92.2654 29.2626 92.458 29.3276 92.6698 29.3998L106.767 34.2054L137.164 34.2059C151.761 34.2059 165.982 33.8292 173.55 34.8519C184.649 36.3519 184.594 37.5928 188.685 40.8519C192.775 44.1111 195.243 50.9793 195.243 57.3829V63.0268C195.243 69.4303 193.784 76.2409 189.694 79.5C185.603 82.7591 182.711 83.257 175.063 85C167.415 86.743 152.191 86.2038 137.164 86.2038H64.6376C49.6109 86.2038 32.8731 86.9466 25.2252 85.2036C17.5772 83.4606 14.6847 83.4628 10.5946 80.2036C6.50438 76.9445 5.045 73.6072 5.045 67.2036V59.2036C5.045 52.8001 5.29593 45.9628 9.38609 42.7036C13.4763 39.4445 13.5412 37.9466 21.1891 36.2036C28.8371 34.4606 49.6109 34.2059 64.6376 34.2059L64.532 34.2054L50.8849 29.5556C41.7082 30.035 32.7391 30.3515 26.2342 30.7036C16.595 30.7036 10.9622 34.2927 6.05402 38.2036C1.1458 42.1146 -4.57764e-05 49.7914 -4.57764e-05 57.3829V63.0268C-4.57764e-05 70.6183 1.1458 78.7927 6.05402 82.7036C10.9622 86.6146 12.0116 87.612 21.1891 89.7036C30.3667 91.7952 48.306 91.2036 66.1204 91.2036H135.681C153.496 91.2036 168.912 91.7952 178.09 89.7036C187.268 87.612 189.372 87.4436 194.28 83.5326C199.188 79.6216 201.802 70.6183 201.802 63.0268V57.3829C201.802 49.7914 199.188 40.7883 194.28 36.8773C189.371 32.9663 189.286 32.7951 180.108 30.7035C170.931 28.6119 153.496 29.206 135.681 29.206L92.089 29.2036Z" fill="#00B578"/>
<path opacity="0.1" fill-rule="evenodd" clip-rule="evenodd" d="M146.695 32H55.3348C37.5764 32 22.8501 32.8548 16.3579 34.1923C9.86565 35.5298 9.93495 35.528 6.46288 38.0288C2.9908 40.5297 4.26399 44.8322 4.26399 51.6729V69.3271C4.26399 76.1678 6.11299 78.6484 9.58507 81.1493C13.0571 83.6501 18.1523 85.6128 24.6445 86.9503C31.1367 88.2877 37.5764 89 55.3348 89H146.695C164.453 89 170.893 88.2877 177.385 86.9503C183.878 85.6128 188.973 83.6501 192.445 81.1493C195.917 78.6484 197.766 76.1678 197.766 69.3271V51.6729C197.766 44.8322 195.917 42.3516 192.445 39.8507C188.973 37.3499 183.878 35.3872 177.385 34.0497C170.893 32.7123 164.453 32 146.695 32Z" fill="#00B578"/>
<path fill-rule="evenodd" clip-rule="evenodd" d="M141.232 102.744V91H154.378L141.232 102.744Z" fill="#919191"/>
<path d="M190.703 8C188.474 8 186.667 6.20914 186.667 4C186.667 1.79086 188.474 0 190.703 0C192.932 0 194.739 1.79086 194.739 4C194.739 6.20914 192.932 8 190.703 8Z" fill="#00B578"/>
<path d="M171.531 21C170.417 21 169.513 20.1046 169.513 19C169.513 17.8954 170.417 17 171.531 17C172.646 17 173.549 17.8954 173.549 19C173.549 20.1046 172.646 21 171.531 21Z" fill="#00B578"/>
<path d="M216.432 32C212.253 32 208.865 28.6421 208.865 24.5C208.865 20.3579 212.253 17 216.432 17C220.612 17 224 20.3579 224 24.5C224 28.6421 220.612 32 216.432 32Z" fill="#919191"/>
</svg>
