<svg width="211" height="101" viewBox="0 0 211 101" fill="none" xmlns="http://www.w3.org/2000/svg">
<path fill-rule="evenodd" clip-rule="evenodd" d="M60.838 27C44.4468 27 32.3465 27 23.389 28C14.4314 29 9.98997 31.5888 5.47388 35.5C0.957783 39.4111 -0.000119431 47.5861 -0.000119431 55.1779V60.822C-0.000119431 68.4138 0.957783 76.0888 5.47388 80C9.98997 83.9111 11.9588 85.4083 20.4031 87.5C28.8475 89.5916 44.4468 89 60.838 89H124.842C141.233 89 152.791 89.5916 161.236 87.5C169.68 85.4083 174.243 83.9111 178.759 80C183.275 76.0888 185.68 68.4138 185.68 60.822V55.1779C185.68 47.5861 183.275 36.911 178.759 32.9999C174.243 29.0888 176.149 29.0918 167.705 27.0001C159.261 24.9084 141.233 27 124.842 27H60.838Z" fill="url(#paint0_linear_471_120)"/>
<path fill-rule="evenodd" clip-rule="evenodd" d="M115.627 100.744V89H131.337L115.627 100.744Z" fill="#919191"/>
<path fill-rule="evenodd" clip-rule="evenodd" d="M171.212 0C168.548 0 166.389 1.79086 166.389 4C166.389 6.20914 168.548 8 171.212 8C173.875 8 176.034 6.20914 176.034 4C176.034 1.79086 173.875 0 171.212 0ZM171.212 2C172.543 2 173.623 2.89543 173.623 4C173.623 5.10457 172.543 6 171.212 6C169.88 6 168.8 5.10457 168.8 4C168.8 2.89543 169.88 2 171.212 2Z" fill="#1F72C4"/>
<path d="M148.303 21C146.971 21 145.891 20.1046 145.891 19C145.891 17.8954 146.971 17 148.303 17C149.634 17 150.714 17.8954 150.714 19C150.714 20.1046 149.634 21 148.303 21Z" fill="#1F72C4"/>
<path fill-rule="evenodd" clip-rule="evenodd" d="M201.957 17C196.963 17 192.914 20.3579 192.914 24.5C192.914 28.6421 196.963 32 201.957 32C206.951 32 211 28.6421 211 24.5C211 20.3579 206.951 17 201.957 17ZM201.957 20C204.954 20 207.383 22.0147 207.383 24.5C207.383 26.9853 204.954 29 201.957 29C198.961 29 196.531 26.9853 196.531 24.5C196.531 22.0147 198.961 20 201.957 20Z" fill="#919191"/>
<defs>
<linearGradient id="paint0_linear_471_120" x1="185.68" y1="58" x2="-0.00012207" y2="58" gradientUnits="userSpaceOnUse">
<stop stop-color="#C3F3F7"/>
<stop offset="1" stop-color="#1F72C4"/>
</linearGradient>
</defs>
</svg>
