<svg width="194" height="95" viewBox="0 0 194 95" fill="none" xmlns="http://www.w3.org/2000/svg">
<path fill-rule="evenodd" clip-rule="evenodd" d="M135.678 21.0002C151.391 21.0002 160 21.9065 168.5 23.5002C176.5 25.0002 183.036 28.0891 187.365 32.0002C191.694 35.9114 194 41.5864 194 49.1782V54.8223C194 62.4141 192.5 70.5002 188 74.5002C183 78.0002 179.095 79.9086 171 82.0002C162.905 84.0919 151.391 83.0002 135.678 83.0002H74.3217C58.6085 83.0002 47.5948 84.0919 39.4998 82.0002C31.4047 79.9086 26.3291 78.4114 21.9998 74.5002C17.6705 70.5891 16 62.4141 16 54.8223V49.1782C16 41.5864 16.6705 35.9114 20.9998 32.0002C24.3647 27.3937 29.4047 25.5919 37.4998 23.5002C45.5948 21.4086 58.6085 21.0002 74.3217 21.0002H135.678ZM73.0139 26.0002C59.7595 26.0002 46.2457 25.7572 39.4998 27.5002C32.7538 29.2433 30.1075 31.241 26.4998 34.5002C22.892 37.7595 21.9998 42.7744 21.9998 49.1782V54.5002C21.9998 60.904 22.892 67.241 26.4998 70.5002C30.1075 73.7595 33.7538 74.7572 40.4998 76.5002C47.2457 78.2433 59.7595 78.0002 73.0139 78.0002H136.986C150.24 78.0002 158.5 77.5002 166 76.5002C173.5 75.5002 178.5 73.5002 183 70.5002C187 67.8337 188.5 61.2261 188.5 54.8223V49.1782C188.5 42.7744 185.808 37.2687 182 34.5002C178.392 31.241 172.746 29.2433 166 27.5002C159.254 25.7572 150.24 26.0002 136.986 26.0002H73.0139Z" fill="#FC9A26"/>
<path opacity="0.1" fill-rule="evenodd" clip-rule="evenodd" d="M56.8379 0.500083H129.162C144.144 0.500083 156.561 0.082637 164.5 2.00002C172.439 3.91739 175.5 4.49995 181 9.00002C183.5 14 186 19.4029 186 26.1688V30.8314C186 37.5972 185.246 45.4149 181 49.0001C176.754 52.5853 172.439 54.5827 164.5 56.5001C156.561 58.4175 144.144 56.5001 129.162 56.5001H56.8379C41.8563 56.5001 29.4386 58.4174 21.5 56.5001C14 56.5001 10.2456 53.5852 6 50C1.75438 46.4148 0 37.5972 0 30.8314V26.1688C0 19.4029 0.754377 13.0852 5 9.50002C9.24562 5.91483 14.0789 2.00002 23.5 2.00002C31.4386 0.082637 41.8563 0.500083 56.8379 0.500083Z" fill="#BA7617"/>
<path fill-rule="evenodd" clip-rule="evenodd" d="M90.0003 94.7447V83.0005H77.0927L90.0003 94.7447Z" fill="#594545"/>
</svg>
