<svg width="204" height="95" viewBox="0 0 204 95" fill="none" xmlns="http://www.w3.org/2000/svg">
<path fill-rule="evenodd" clip-rule="evenodd" d="M61.3281 20.5386C44.8049 20.5386 35.7529 21.4448 26.8147 23.0386C18.4024 24.5386 11.5293 27.6275 6.97687 31.5386C2.42441 35.4497 4.57764e-05 41.1247 4.57764e-05 48.7165V54.3607C4.57764e-05 61.9524 1.57762 70.0386 6.30959 74.0386C11.5673 77.5386 15.6732 79.4469 24.1856 81.5386C32.698 83.6303 44.8049 82.5386 61.3281 82.5386H125.847C142.37 82.5386 153.952 83.6303 162.464 81.5386C170.977 79.4469 176.314 77.9497 180.866 74.0386C185.419 70.1275 187.175 61.9524 187.175 54.3607V48.7165C187.175 41.1247 186.47 35.4497 181.918 31.5386C178.379 26.9321 173.08 25.1303 164.567 23.0386C156.055 20.9469 142.37 20.5386 125.847 20.5386H61.3281ZM127.223 25.5386C141.16 25.5386 155.371 25.2955 162.464 27.0386C169.558 28.7816 172.341 30.7793 176.134 34.0386C179.928 37.2978 180.866 42.3127 180.866 48.7165V54.0386C180.866 60.4424 179.928 66.7793 176.134 70.0386C172.341 73.2978 168.506 74.2955 161.413 76.0386C154.319 77.7816 141.16 77.5386 127.223 77.5386H59.9528C46.0152 77.5386 37.3302 77.0386 29.4436 76.0386C21.557 75.0386 16.2995 73.0386 11.5673 70.0386C7.36113 67.3721 5.78381 60.7644 5.78381 54.3607V48.7165C5.78381 42.3127 8.61447 36.807 12.6189 34.0386C16.4126 30.7793 22.35 28.7816 29.4436 27.0386C36.5372 25.2955 46.0152 25.5386 59.9528 25.5386H127.223Z" fill="#FC9A26"/>
<path opacity="0.1" fill-rule="evenodd" clip-rule="evenodd" d="M144.232 0.0384131H68.18C52.4262 0.0384131 39.3685 -0.379033 31.0206 1.53835C22.6728 3.45572 19.4536 4.03828 13.6701 8.53835C11.0412 13.5383 8.41238 18.9412 8.41238 25.7071V30.3697C8.41238 37.1356 9.20564 44.9532 13.6701 48.5384C18.1346 52.1236 22.6728 54.121 31.0206 56.0384C39.3685 57.9558 52.4262 56.0384 68.18 56.0384H144.232C159.986 56.0384 173.044 57.9558 181.392 56.0384C189.278 56.0384 193.226 53.1235 197.691 49.5383C202.155 45.9532 204 37.1356 204 30.3697V25.7071C204 18.9412 203.207 12.6235 198.742 9.03835C194.278 5.45316 189.195 1.53835 179.289 1.53835C170.941 -0.379033 159.986 0.0384131 144.232 0.0384131Z" fill="#BA7617"/>
<path fill-rule="evenodd" clip-rule="evenodd" d="M109.361 94.2828V82.5386H122.933L109.361 94.2828Z" fill="#594545"/>
</svg>
